<?xml version="1.0" encoding="UTF-8"?>
<svg id="Layer_1" xmlns="http://www.w3.org/2000/svg" version="1.1" viewBox="0 0 174.6 47.8">
  <!-- Generator: Adobe Illustrator 29.0.0, SVG Export Plug-In . SVG Version: 2.1.0 Build 186)  -->
  <defs>
    <style>
      .st0 {
        display: none;
        fill: #3081c3;
      }

      .st0, .st1 {
        fill-rule: evenodd;
      }

      .st1 {
        fill: #2a523d;
      }
    </style>
  </defs>
  <path class="st1" d="M6,7.7C3.7,6.4.7,3.8,0,0c2.4,3.1,8.6,4,14.8,4,10.7.1,15.9,4.2,17.1,18.1,1.2,13.3-5.5,16.8-11.9,23.2-5-3.7-13.1-3.6-18.3-2.3,2.7-2.3,5.3-3.7,7.7-4.5,1.6-2.7.9-6.6.1-12.5-1.3-9.4.7-12.4,4.3-16.1-3-.5-5.8-1.1-7.8-2.2h0ZM16.4,10.4c-1.9,2.2-1.1,6.2-.7,12.1.7,9.9,1.1,12.3-2.9,15.4,3.4-.3,6.7.6,10,1.9,4.5-4.2,3.4-10.2,2.8-16.4-.9-10.2-4.2-12.2-7.7-12.8-.5,0-1-.2-1.6-.3h0Z"/>
  <path class="st1" d="M42.5,35.9l-4.4,3.4c-2.7-1.8-3.1-4-3.1-6.9v-13c0-1.6-.9-3-2.1-3.4l4.4-3.4c2.7,1.8,3.1,4,3.1,6.9v13c0,1.6.9,3,2.1,3.4h0Z"/>
  <path class="st1" d="M50.6,12.5c2.6.2,5.6,1.6,6.9,5.6l-4,3c-1-2.6-2.2-5.1-5.3-4.7-.5.8-1,3.4.4,4.9,1.5,1.6,3.7,2.3,5.9,3.5,1.7,1,3.4,2.1,3.4,5.7s-.5,3.6-1.8,4.5l-6.3,4.5c-3.7-.7-5.5-3.2-6.6-6,1.3-1.2,2.8-2.1,4.1-3.3.7,2.1,1.7,5.4,5,5.2.6-1,1.1-3.9,0-5.1-1.5-1.6-3.7-2.3-5.9-3.5-1.7-1-3.4-2.5-3.4-5.7s.5-3.5,2.7-5.2l4.9-3.5h0Z"/>
  <path class="st1" d="M64.8,18.7c0,.3,0,.5,0,.8v13c0,1.6.9,3,2.1,3.4l-4.4,3.4c-2.7-1.8-3.1-4-3.1-6.9v-13c0-1.6-.9-3-2.1-3.4l4.4-3.4c1.7,1.1,2.5,2.4,2.8,3.9l5-3.9c3,1,4.8,3.9,4.8,6.9v13c0,1.6.9,3,2.1,3.4l-4.4,3.4c-2.7-1.8-3.1-4-3.1-6.9v-13c0-1.9-1.1-2.3-1.8-2.7l-2.4,1.9h0Z"/>
  <path class="st1" d="M81.7,28.5c.2.9.5,1.7.8,2.4,1.9,4.1,6.8,4.4,8.9,3.5l-5.9,4.9c-5.8-.4-8.9-5.7-8.9-13.1s3.1-10.7,5.8-12.1l3.6-1.9,4.7,9.1-8.9,7.1h0ZM81.3,26.3l4.5-3.5-3.2-6.3c-1.4,1.7-1.8,6-1.2,9.8h0Z"/>
  <path class="st1" d="M90,16l4.4-3.4c2.7,1.8,3.1,4,3.1,6.9v12.3c0,1.7,1.2,2.7,2.3,3.1l2-1.7v-13.7c0-1.6-.9-3-2.1-3.4l4.4-3.4c2.7,1.8,3.1,4,3.1,6.9v13.5c0,2.7,1,5.3,1,8.5s-3.9,6.3-9.3,6.3-9.3-2.2-9.4-5.6c0-1.2.4-2.9,1.7-4.2l3.9,3.5c-1,1.3-1.1,4.7,3.3,4.7s5.2-1.7,4.9-4.4c-.3-2.7-1.3-5-1.3-6.2l-4.5,3.8c-3.1-.6-5.3-4.3-5.3-6.4v-13.5c0-1.6-.9-3-2.1-3.4h0Z"/>
  <path class="st1" d="M118,35.9l-4.4,3.4c-2.7-1.8-3.1-4-3.1-6.9V8.7c0-1.6-.7-3-2.1-3.4l4.3-3.4c2.7,1.9,3.1,4,3.1,6.9v23.8c0,1.6.9,3,2.1,3.4h0Z"/>
  <path class="st1" d="M143.5,18.7c0,.3,0,.5,0,.8v13c0,1.6.9,3,2.1,3.4l-4.4,3.4c-2.7-1.8-3.1-4-3.1-6.9v-13c0-1.6-.9-3-2.1-3.4l4.4-3.4c1.7,1.1,2.5,2.4,2.8,3.9l5-3.9c3,1,4.8,3.9,4.8,6.9v13c0,1.6.9,3,2.1,3.4l-4.4,3.4c-2.7-1.8-3.1-4-3.1-6.9v-13c0-1.9-1.1-2.3-1.8-2.7l-2.4,1.9h0Z"/>
  <path class="st1" d="M166.2,31.6c0,1.4-.7,2-1.9,3-1.1-.6-2.7-1.7-3.3-4.6-.9-4-1-9.3.3-13,2,0,5,3,5,4.3v10.4h0ZM164,12.7l-4.3,2.9c-1.9,1.4-3.6,5.1-3.9,9.2-.7,8.4,2.1,13.5,6.8,14.6l4.2-4c.6,1.6,1.7,2.9,3.7,3.9l4.3-3.3c-1.2-.5-3.1-1.5-3.1-3.4V8.7c0-2.8-.6-5-3.4-6.9l-4.3,3.4c1.3.4,2.4,2,2.4,3.7v5.6c-.6-.8-1.5-1.6-2.2-1.9h0Z"/>
  <path class="st1" d="M37.2,4.8l-4.4,3.4c.9,1.2,2.3,2.8,4.3,2.8s4.3-1.9,5-4.1c-2.5.9-3.9-.9-5-2.2h0Z"/>
  <path class="st0" d="M137.6,41.5c0,.1-.2.2-.3.2h-1.9v-1.3h1.9c.2,0,.3,0,.3.2v1h0ZM139.3,41.7v-1.4c0-.5-.7-.9-1.5-.9h-3.9v5.5h1.6v-2.3h2.3c.8,0,1.5-.4,1.5-.9h0Z"/>
  <path class="st0" d="M147.7,43.8c0,.1-.2.2-.3.2h-1.6c-.2,0-.3,0-.3-.2v-.3c0-.1.2-.2.4-.2h1.6c.2,0,.3,0,.3.2v.3h0ZM149.3,44v-2.3c0-.5-.7-.9-1.5-.9h-2.4c-.8,0-1.5.4-1.5.9v.3h1.6c0-.2.1-.3.3-.3h1.6c.2,0,.3,0,.3.2v.4c-.1,0-.2,0-.3,0h-2c-.8,0-1.5.4-1.5.9v.8c0,.5.6.9,1.5.9h2.4c.8,0,1.5-.4,1.5-.9h0Z"/>
  <path class="st0" d="M158.5,42.1h0c0-.2-.2-.3-.3-.3h-1.5c-.2,0-.3,0-.3.2v2.9h-1.6v-3.1c0-.5.6-.9,1.5-.9h2.2c.8,0,1.5.4,1.5.9v.3h-1.6Z"/>
  <polygon class="st0" points="168 44.9 168 44.4 166.2 43.4 166 43.5 166 44.9 164.4 44.9 164.4 39.4 166 39.4 166 42.2 167.5 41.4 167.5 40.9 169.1 40.9 169.1 41.7 167.3 42.7 169.6 44 169.6 44.9 168 44.9"/>
  <path class="st1" d="M123.9,38.2c-4.6-1.1-6.6-6.2-5.9-14.6.3-4.1,2-7.8,3.9-9.2l4.6-3.1c3.7.8,6.5,3.8,6.5,7v13.5c0,1.2,1.5,2.4,3.1,2.6l-4.2,3.7c-1.8-.6-3.2-2-3.8-4l-4.2,4h0ZM127.7,18.4c0-1.4-1.9-3-3.9-3-1.9,4.1-1.9,9.8-1,13.8.7,2.9,2.5,3.5,3.6,4.1,1.2-1.1,1.3-1.3,1.3-2.5v-12.3h0Z"/>
</svg>